<svg width="20" height="20" viewBox="0 0 20 20" fill="none" xmlns="http://www.w3.org/2000/svg">
<path d="M2.5 8.33333H3.25H2.5ZM14.1667 8.33333H13.4167H14.1667ZM8.33333 2.5V1.75V2.5ZM16.9697 18.0303C17.2626 18.3232 17.7374 18.3232 18.0303 18.0303C18.3232 17.7374 18.3232 17.2626 18.0303 16.9697L16.9697 18.0303ZM13.0303 11.9697C12.7374 11.6768 12.2626 11.6768 11.9697 11.9697C11.6768 12.2626 11.6768 12.7374 11.9697 13.0303L13.0303 11.9697ZM1.75 8.33333C1.75 9.19787 1.92028 10.0539 2.25113 10.8527L3.63695 10.2786C3.38148 9.6619 3.25 9.00089 3.25 8.33333H1.75ZM2.25113 10.8527C2.58197 11.6514 3.06689 12.3771 3.67821 12.9885L4.73887 11.9278C4.26684 11.4558 3.89241 10.8954 3.63695 10.2786L2.25113 10.8527ZM3.67821 12.9885C4.28953 13.5998 5.01527 14.0847 5.814 14.4155L6.38803 13.0297C5.77129 12.7743 5.21091 12.3998 4.73887 11.9278L3.67821 12.9885ZM5.814 14.4155C6.61273 14.7464 7.4688 14.9167 8.33333 14.9167V13.4167C7.66578 13.4167 7.00476 13.2852 6.38803 13.0297L5.814 14.4155ZM8.33333 14.9167C9.19787 14.9167 10.0539 14.7464 10.8527 14.4155L10.2786 13.0297C9.6619 13.2852 9.00089 13.4167 8.33333 13.4167V14.9167ZM10.8527 14.4155C11.6514 14.0847 12.3771 13.5998 12.9885 12.9885L11.9278 11.9278C11.4558 12.3998 10.8954 12.7743 10.2786 13.0297L10.8527 14.4155ZM12.9885 12.9885C13.5998 12.3771 14.0847 11.6514 14.4155 10.8527L13.0297 10.2786C12.7743 10.8954 12.3998 11.4558 11.9278 11.9278L12.9885 12.9885ZM14.4155 10.8527C14.7464 10.0539 14.9167 9.19787 14.9167 8.33333H13.4167C13.4167 9.00089 13.2852 9.6619 13.0297 10.2786L14.4155 10.8527ZM14.9167 8.33333C14.9167 7.4688 14.7464 6.61273 14.4155 5.814L13.0297 6.38803C13.2852 7.00476 13.4167 7.66578 13.4167 8.33333H14.9167ZM14.4155 5.814C14.0847 5.01527 13.5998 4.28953 12.9885 3.67821L11.9278 4.73887C12.3998 5.21091 12.7743 5.77129 13.0297 6.38803L14.4155 5.814ZM12.9885 3.67821C12.3771 3.06689 11.6514 2.58197 10.8527 2.25113L10.2786 3.63695C10.8954 3.89241 11.4558 4.26684 11.9278 4.73887L12.9885 3.67821ZM10.8527 2.25113C10.0539 1.92028 9.19787 1.75 8.33333 1.75V3.25C9.00089 3.25 9.6619 3.38148 10.2786 3.63695L10.8527 2.25113ZM8.33333 1.75C7.4688 1.75 6.61273 1.92028 5.814 2.25113L6.38803 3.63695C7.00476 3.38148 7.66578 3.25 8.33333 3.25V1.75ZM5.814 2.25113C5.01527 2.58197 4.28953 3.06689 3.67821 3.67821L4.73887 4.73887C5.2109 4.26684 5.77129 3.89241 6.38803 3.63695L5.814 2.25113ZM3.67821 3.67821C3.06689 4.28953 2.58197 5.01527 2.25113 5.814L3.63695 6.38803C3.89241 5.77129 4.26684 5.2109 4.73887 4.73887L3.67821 3.67821ZM2.25113 5.814C1.92028 6.61273 1.75 7.4688 1.75 8.33333H3.25C3.25 7.66578 3.38148 7.00476 3.63695 6.38803L2.25113 5.814ZM18.0303 16.9697L13.0303 11.9697L11.9697 13.0303L16.9697 18.0303L18.0303 16.9697Z" fill="#00ADB3"/>
</svg>
